<?xml version="1.0" encoding="UTF-8" standalone="no"?>
<!-- Created with Inkscape (http://www.inkscape.org/) -->

<svg
   xmlns:dc="http://purl.org/dc/elements/1.1/"
   xmlns:cc="http://creativecommons.org/ns#"
   xmlns:rdf="http://www.w3.org/1999/02/22-rdf-syntax-ns#"
   xmlns:svg="http://www.w3.org/2000/svg"
   xmlns="http://www.w3.org/2000/svg"
   xmlns:xlink="http://www.w3.org/1999/xlink"
   xmlns:sodipodi="http://sodipodi.sourceforge.net/DTD/sodipodi-0.dtd"
   xmlns:inkscape="http://www.inkscape.org/namespaces/inkscape"
   width="512"
   height="512"
   viewBox="0 0 512 0"
   id="svg2"
   version="1.1"
   inkscape:version="0.91 r13725"
   sodipodi:docname="clock2.svg"
   inkscape:export-filename="/home/tux/Documents/logos/qt314wall/clock2.png"
   inkscape:export-xdpi="90"
   inkscape:export-ydpi="90">
  <defs
     id="defs4" />
  <sodipodi:namedview
     id="base"
     pagecolor="#7e7e7e"
     bordercolor="#666666"
     borderopacity="1.0"
     inkscape:pageopacity="0"
     inkscape:pageshadow="2"
     inkscape:zoom="0.70710678"
     inkscape:cx="319.75359"
     inkscape:cy="130.22385"
     inkscape:document-units="px"
     inkscape:current-layer="layer1"
     showgrid="true"
     units="px"
     inkscape:snap-bbox="false"
     inkscape:bbox-nodes="false"
     inkscape:snap-bbox-midpoints="false"
     inkscape:object-paths="true"
     inkscape:snap-intersection-paths="true"
     inkscape:object-nodes="true"
     inkscape:snap-smooth-nodes="true"
     inkscape:window-width="1148"
     inkscape:window-height="781"
     inkscape:window-x="111"
     inkscape:window-y="86"
     inkscape:window-maximized="0"
     inkscape:snap-grids="true">
    <inkscape:grid
       type="xygrid"
       id="grid4136"
       spacingx="8"
       spacingy="8"
       originx="0"
       originy="0"
       empspacing="8" />
  </sodipodi:namedview>
  <metadata
     id="metadata7">
    <rdf:RDF>
      <cc:Work
         rdf:about="">
        <dc:format>image/svg+xml</dc:format>
        <dc:type
           rdf:resource="http://purl.org/dc/dcmitype/StillImage" />
        <dc:title></dc:title>
      </cc:Work>
    </rdf:RDF>
  </metadata>
  <g
     inkscape:label="Layer 1"
     inkscape:groupmode="layer"
     id="layer1">
    <circle
       style="opacity:1;fill:none;fill-opacity:1;stroke:#fcfcfc;stroke-width:32;stroke-linecap:square;stroke-linejoin:bevel;stroke-miterlimit:4;stroke-dasharray:none;stroke-opacity:1"
       id="path4138"
       cx="256"
       cy="256"
       r="176" />
    <path
       style="fill:none;fill-rule:evenodd;stroke:#fcfcfc;stroke-width:32;stroke-linecap:square;stroke-linejoin:bevel;stroke-miterlimit:4;stroke-dasharray:none;stroke-opacity:1"
       d="m 256,128 0,128 m 0,0 104,0"
       id="path4140"
       inkscape:connector-curvature="0"
       sodipodi:nodetypes="cccc" />
    <circle
       cy="896.36218"
       cx="256"
       id="circle4200"
       style="opacity:1;fill:none;fill-opacity:1;stroke:none;stroke-width:16;stroke-linecap:square;stroke-linejoin:bevel;stroke-miterlimit:4;stroke-dasharray:none;stroke-opacity:1"
       r="244" />
    <g
       id="g4170"
       transform="translate(4,-4)">
      <path
         sodipodi:nodetypes="cssscc"
         inkscape:connector-curvature="0"
         id="path4146"
         d="m 580,436 c 24,-8 64,8 64,16 0,8 22.14214,21.97969 30.14214,21.97969 8,0 31.2731,34.02031 19.95939,34.02031 L 580,508 Z"
         style="fill:#cd6767;fill-opacity:1;fill-rule:evenodd;stroke:none;stroke-width:1px;stroke-linecap:butt;stroke-linejoin:miter;stroke-opacity:1" />
      <path
         sodipodi:nodetypes="ccssccc"
         inkscape:connector-curvature="0"
         id="path4148"
         d="m 580,372 0,72 c 0,0 32,8 48,8 16,0 40,-8 32,-24 -8,-16 -9,-32 -9,-32 l 9,-24 z"
         style="fill:#cdcd67;fill-opacity:1;fill-rule:evenodd;stroke:none;stroke-width:1px;stroke-linecap:butt;stroke-linejoin:miter;stroke-opacity:1" />
      <path
         sodipodi:nodetypes="cssssc"
         inkscape:connector-curvature="0"
         id="path4154"
         d="m 652,413 c -24,16 -32,32 -24,40 8,8 19.25431,39 37.14286,39 16,0 56.1275,-21.90928 71.85714,-30.42857 C 766.54168,445.57143 708,421 692,413 c -16,-8 -40,0 -40,0 z"
         style="fill:#6767cd;fill-opacity:1;fill-rule:evenodd;stroke:none;stroke-width:1px;stroke-linecap:butt;stroke-linejoin:miter;stroke-opacity:1" />
      <path
         inkscape:connector-curvature="0"
         id="path4152"
         d="m 644,372 c -16,16 8,64 16,64 8,0 40,8 56,0 16,-8 8,-64 8,-64 z"
         style="fill:#67c9cd;fill-opacity:1;fill-rule:evenodd;stroke:none;stroke-width:1px;stroke-linecap:butt;stroke-linejoin:miter;stroke-opacity:1" />
      <path
         sodipodi:nodetypes="cssccc"
         inkscape:connector-curvature="0"
         id="path4144"
         d="M 675.65736,508 C 691.65736,468 700,468 716,468 c 16,0 32,-40 40,-40 8,0 16,8 16,8 l 0,72 z"
         style="fill:#cd67cd;fill-opacity:1;fill-rule:evenodd;stroke:none;stroke-width:1px;stroke-linecap:butt;stroke-linejoin:miter;stroke-opacity:1" />
      <path
         inkscape:connector-curvature="0"
         id="path4150"
         d="m 772,372 -48,0 c 0,0 -32,24 -32,40 0,16 16,24 24,32 8,8 56,8 56,-8 0,-16 0,-64 0,-64 z"
         style="fill:#67cd67;fill-opacity:1;fill-rule:evenodd;stroke:none;stroke-width:1px;stroke-linecap:butt;stroke-linejoin:miter;stroke-opacity:1" />
      <rect
         y="372"
         x="580"
         height="136"
         width="192"
         id="rect4142"
         style="opacity:1;fill:none;fill-opacity:0.29803922;stroke:#fcfcfc;stroke-width:16;stroke-linecap:square;stroke-linejoin:bevel;stroke-miterlimit:4;stroke-dasharray:none;stroke-opacity:1" />
    </g>
    <use
       x="0"
       y="0"
       xlink:href="#g4170"
       id="use4179"
       transform="translate(-512,-64)"
       width="100%"
       height="100%" />
  </g>
</svg>
