<?xml version="1.0" encoding="UTF-8" standalone="no"?>
<!-- Created with Inkscape (http://www.inkscape.org/) -->

<svg
   xmlns:dc="http://purl.org/dc/elements/1.1/"
   xmlns:cc="http://creativecommons.org/ns#"
   xmlns:rdf="http://www.w3.org/1999/02/22-rdf-syntax-ns#"
   xmlns:svg="http://www.w3.org/2000/svg"
   xmlns="http://www.w3.org/2000/svg"
   xmlns:xlink="http://www.w3.org/1999/xlink"
   xmlns:sodipodi="http://sodipodi.sourceforge.net/DTD/sodipodi-0.dtd"
   xmlns:inkscape="http://www.inkscape.org/namespaces/inkscape"
   width="512"
   height="512"
   viewBox="0 0 512 0"
   id="svg2"
   version="1.1"
   inkscape:version="0.91 r13725"
   sodipodi:docname="clock.svg"
   inkscape:export-filename="../images/clock.png"
   inkscape:export-xdpi="90"
   inkscape:export-ydpi="90">
  <defs
     id="defs4">
    <linearGradient
       inkscape:collect="always"
       id="linearGradient4210">
      <stop
         style="stop-color:#ffffff;stop-opacity:0.44497609"
         offset="0"
         id="stop4212" />
      <stop
         style="stop-color:#101010;stop-opacity:0.44497609"
         offset="1"
         id="stop4214" />
    </linearGradient>
    <linearGradient
       inkscape:collect="always"
       xlink:href="#linearGradient4210"
       id="linearGradient4216"
       x1="260"
       y1="652.36218"
       x2="260"
       y2="1140.3622"
       gradientUnits="userSpaceOnUse" />
  </defs>
  <sodipodi:namedview
     id="base"
     pagecolor="#ffffff"
     bordercolor="#666666"
     borderopacity="1.0"
     inkscape:pageopacity="0.0"
     inkscape:pageshadow="2"
     inkscape:zoom="0.70710678"
     inkscape:cx="-13.012704"
     inkscape:cy="247.35162"
     inkscape:document-units="px"
     inkscape:current-layer="layer1"
     showgrid="false"
     units="px"
     inkscape:snap-bbox="false"
     inkscape:bbox-nodes="false"
     inkscape:snap-bbox-midpoints="false"
     inkscape:object-paths="true"
     inkscape:snap-intersection-paths="true"
     inkscape:object-nodes="true"
     inkscape:snap-smooth-nodes="true"
     inkscape:window-width="1920"
     inkscape:window-height="1006"
     inkscape:window-x="-4"
     inkscape:window-y="0"
     inkscape:window-maximized="1">
    <inkscape:grid
       type="xygrid"
       id="grid4136"
       spacingx="8"
       spacingy="8"
       originx="4"
       originy="4"
       empspacing="8" />
  </sodipodi:namedview>
  <metadata
     id="metadata7">
    <rdf:RDF>
      <cc:Work
         rdf:about="">
        <dc:format>image/svg+xml</dc:format>
        <dc:type
           rdf:resource="http://purl.org/dc/dcmitype/StillImage" />
        <dc:title />
      </cc:Work>
    </rdf:RDF>
  </metadata>
  <g
     inkscape:label="Layer 1"
     inkscape:groupmode="layer"
     id="layer1"
     transform="translate(0,-640.3622)">
    <circle
       style="opacity:1;fill:#c0c0c0;fill-opacity:1;stroke:#3f3f3f;stroke-width:16;stroke-linecap:square;stroke-linejoin:bevel;stroke-miterlimit:4;stroke-dasharray:none;stroke-opacity:1"
       id="path4138"
       cx="256"
       cy="896.36218"
       r="236" />
    <path
       style="fill:none;fill-rule:evenodd;stroke:#3f3f3f;stroke-width:16;stroke-linecap:butt;stroke-linejoin:miter;stroke-opacity:1;stroke-miterlimit:4;stroke-dasharray:none"
       d="m 260,700.3622 0,192 128,-64"
       id="path4140"
       inkscape:connector-curvature="0" />
    <circle
       cy="896.36218"
       cx="256"
       id="circle4200"
       style="opacity:1;fill:url(#linearGradient4216);fill-opacity:1;stroke:none;stroke-width:16;stroke-linecap:square;stroke-linejoin:bevel;stroke-miterlimit:4;stroke-dasharray:none;stroke-opacity:1"
       r="244" />
    <g
       id="g4170">
      <path
         sodipodi:nodetypes="cssscc"
         inkscape:connector-curvature="0"
         id="path4146"
         d="m 580,764.3622 c 24,-8 64,8 64,16 0,8 22.14214,21.97969 30.14214,21.97969 8,0 31.2731,34.02031 19.95939,34.02031 l -114.10153,0 z"
         style="fill:#cd9595;fill-opacity:1;fill-rule:evenodd;stroke:none;stroke-width:1px;stroke-linecap:butt;stroke-linejoin:miter;stroke-opacity:1" />
      <path
         sodipodi:nodetypes="ccssccc"
         inkscape:connector-curvature="0"
         id="path4148"
         d="m 580,700.3622 0,72 c 0,0 32,8 48,8 16,0 40,-8 32,-24 -8,-16 -9,-32 -9,-32 l 9,-24 z"
         style="fill:#cdcc95;fill-opacity:1;fill-rule:evenodd;stroke:none;stroke-width:1px;stroke-linecap:butt;stroke-linejoin:miter;stroke-opacity:1" />
      <path
         sodipodi:nodetypes="cssssc"
         inkscape:connector-curvature="0"
         id="path4154"
         d="m 652,740.3622 c -24,16 -32,32 -24,40 8,8 19.25431,39 37.14286,39 16,0 56.1275,-21.90928 71.85714,-30.42857 29.54168,-16 -29,-40.57143 -45,-48.57143 -16,-8 -40,0 -40,0 z"
         style="fill:#9597cd;fill-opacity:1;fill-rule:evenodd;stroke:none;stroke-width:1px;stroke-linecap:butt;stroke-linejoin:miter;stroke-opacity:1" />
      <path
         inkscape:connector-curvature="0"
         id="path4152"
         d="m 644,700.3622 c -16,16 8,64 16,64 8,0 40,8 56,0 16,-8 8,-64 8,-64 z"
         style="fill:#95c9cd;fill-rule:evenodd;stroke:none;stroke-width:1px;stroke-linecap:butt;stroke-linejoin:miter;stroke-opacity:1;fill-opacity:1" />
      <path
         sodipodi:nodetypes="cssccc"
         inkscape:connector-curvature="0"
         id="path4144"
         d="m 675.65736,836.3622 c 16,-40 24.34264,-40 40.34264,-40 16,0 32,-40 40,-40 8,0 16,8 16,8 l 0,72 z"
         style="fill:#cd95c8;fill-opacity:1;fill-rule:evenodd;stroke:none;stroke-width:1px;stroke-linecap:butt;stroke-linejoin:miter;stroke-opacity:1" />
      <path
         inkscape:connector-curvature="0"
         id="path4150"
         d="m 772,700.3622 -48,0 c 0,0 -32,24 -32,40 0,16 16,24 24,32 8,8 56,8 56,-8 0,-16 0,-64 0,-64 z"
         style="fill:#95cd9a;fill-rule:evenodd;stroke:none;stroke-width:1px;stroke-linecap:butt;stroke-linejoin:miter;stroke-opacity:1;fill-opacity:1" />
      <rect
         y="700.36218"
         x="580"
         height="136"
         width="192"
         id="rect4142"
         style="opacity:1;fill:none;fill-opacity:0.29803922;stroke:#3f3f3f;stroke-width:8;stroke-linecap:square;stroke-linejoin:bevel;stroke-miterlimit:4;stroke-dasharray:none;stroke-opacity:1" />
    </g>
    <use
       x="0"
       y="0"
       xlink:href="#g4170"
       id="use4179"
       transform="translate(-544,280)"
       width="100%"
       height="100%" />
  </g>
</svg>
